# xmcd
#
# Track frame offsets: 
#        150
#        23833
#        55689
#        73052
#        92825
#        103209
#        120741
#        138112
#        162749
#
# Disc length: 2510 seconds
#
# Revision: 0
# Processed by: cddbd v1.5.2PL0 Copyright (c) Steve Scherf et al.
# Submitted via: ExactAudioCopy v0.99pb3
#
DISCID=7c09cc09
DTITLE=Preston School Of Industry - Live In Chicago 2002 Bootleg
DYEAR=2004
DGENRE=Trifekta
TTITLE0=Monkey Heart And The Horses Leg
TTITLE1=Encyclopediac Knowledge Of
TTITLE2=Somethings Happen Always
TTITLE3=A Treasure @ Silver Bank
TTITLE4=Western Homes
TTITLE5=Falling Away
TTITLE6=Idea Of Fires
TTITLE7=Take A Stand
TTITLE8=To FF
EXTD=
EXTT0=
EXTT1=
EXTT2=
EXTT3=
EXTT4=
EXTT5=
EXTT6=
EXTT7=
EXTT8=
PLAYORDER=
